<svg aria-hidden="true" focusable="false" height="38" viewBox="0 0 32 38" width="32" xmlns="http://www.w3.org/2000/svg"><g fill="none" fill-rule="evenodd"><path d="m0 0h32v38h-32z"></path><path d="m11.0378702 0c.3752919 0 .6854477.27558162.7345341.63313012l.0067672.0994-.0001715 7.20746988 1.4796987.00028562c.3752919 0 .6854477.27558162.7345341.63313012l.0067672.0994v16.23967966c0 .3708514-.2788814.6773374-.6407111.725843l-.1005902.0066871-3.6196987-.0000255.0001013 3.9359044c0 .3708515-.2788814.6773374-.64071113.725843l-.1005902.0066872-1.15679997-.0004346.00030136 7.687h-1.48260268l-.00069868-7.687-1.15579993.0004346c-.37529198 0-.68544771-.2755817-.73453414-.6331302l-.0067672-.0994-.00089873-3.9359044-3.61869866.0000255c-.37529197 0-.6854477-.2755816-.73453413-.6331301l-.00676721-.0994v-16.23967966c0-.37085145.2788814-.67733736.64071114-.72584298l.1005902-.00668714 1.47869866-.00028562.00082854-7.20746988c0-.37085145.2788814-.67733736.64071114-.72584298l.1005902-.00668714zm-2.8818702 25.645h-2.313l-.00015546 3.2033181h2.31276753zm4.3611512-16.2402289h-11.0348265v14.7750409h11.0348265zm-3.90200374 4.6147694-1.17098296 2.3940566h2.0189359l-4.19938372 4.069893 1.61514744-3.0723693h-1.77666405l1.00946794-3.3915803zm1.68097224-12.55475496h-6.59276351l-.00035619 6.47521446h6.593z" fill="#fff" fill-rule="nonzero" transform="translate(9)"></path></g></svg>