<svg width="535.015625px" height="77px" xmlns="http://www.w3.org/2000/svg" viewBox="-17.5078125 36.5 535.015625 77" style="background: rgba(0, 0, 0, 0);" preserveAspectRatio="xMidYMid"><defs><filter id="editing-extrude-glow"><feFlood flood-color="rgba(0%,0%,0%,0)" result="flood-1"></feFlood><feMorphology operator="erode" radius="1" in="SourceAlpha" result="erode"></feMorphology><feComposite operator="in" in="flood-1" in2="erode" result="comp1"></feComposite><feConvolveMatrix order="0,0" divisor="1" in="comp1" result="convolve" kernelMatrix=""></feConvolveMatrix><feOffset dx="0" dy="0" in="convolve" result="extrude"></feOffset><feComposite operator="in" in="flood-1" in2="extrude" result="comp-extrude"></feComposite><feFlood flood-color="rgba(0%,0%,0%,0)" result="flood-2"></feFlood><feComposite operator="in" in="flood-2" in2="SourceAlpha" result="comp2"></feComposite><feMorphology operator="dilate" radius="1" in="comp2" result="dilate"></feMorphology><feOffset dx="0" dy="0" in="dilate" result="offset"></feOffset><feGaussianBlur in="offset" stdDeviation="5.8" result="blur"></feGaussianBlur><feComponentTransfer in="blur" result="shadow"><feFuncA type="linear" slope="0.8" intercept="-0.2"></feFuncA></feComponentTransfer><feMerge><feMergeNode in="shadow"></feMergeNode><feMergeNode in="comp-extrude"></feMergeNode><feMergeNode in="SourceGraphic"></feMergeNode></feMerge></filter></defs><g filter="url(#editing-extrude-glow)"><g transform="translate(59.98497295379639, 87.67000007629395)"><path d="M9.66-13.51L9.66-13.51Q9.66-9.03 10.47-6.32L10.47-6.32L10.47-6.32Q11.27-3.61 13.11-2.35L13.11-2.35L13.11-2.35Q14.95-1.09 18.06-1.09L18.06-1.09L19.18-1.09L19.18-9.70L15.72-9.70L15.72-10.75L25.27-10.75L25.27-1.54L25.27-1.54Q24.50-1.40 23.43-1.14L23.43-1.14L23.43-1.14Q22.37-0.88 21.81-0.74L21.81-0.74L21.81-0.74Q19.50-0.14 18.11 0.14L18.11 0.14L18.11 0.14Q16.73 0.42 15.54 0.42L15.54 0.42L15.54 0.42Q11.80 0.42 8.75-0.86L8.75-0.86L8.75-0.86Q5.71-2.14 3.83-5.04L3.83-5.04L3.83-5.04Q1.96-7.95 1.96-12.60L1.96-12.60L1.96-12.60Q1.96-18.94 5.78-21.93L5.78-21.93L5.78-21.93Q9.59-24.92 15.82-24.92L15.82-24.92L15.82-24.92Q18.41-24.92 20.84-24.47L20.84-24.47L20.84-24.47Q23.28-24.01 24.64-23.35L24.64-23.35L24.15-17.33L23.17-17.33L23.17-17.33Q22.19-20.30 20.49-22.10L20.49-22.10L20.49-22.10Q18.80-23.91 15.86-23.91L15.86-23.91L15.86-23.91Q12.53-23.91 11.10-21.30L11.10-21.30L11.10-21.30Q9.66-18.69 9.66-13.51L9.66-13.51ZM42.35 0L42.35-0.70L43.86-0.84L43.86-0.84Q44.34-0.91 44.34-1.23L44.34-1.23L44.34-1.23Q44.34-1.40 44.24-1.65L44.24-1.65L41.93-6.76L33.81-6.76L31.71-1.65L31.71-1.65Q31.61-1.40 31.61-1.23L31.61-1.23L31.61-1.23Q31.61-0.91 32.09-0.84L32.09-0.84L33.60-0.70L33.60 0L28.28 0L28.28-0.70L29.58-0.84L29.58-0.84Q30.00-0.88 30.17-1.05L30.17-1.05L30.17-1.05Q30.35-1.23 30.56-1.68L30.56-1.68L40.25-24.89L41.37-24.89L51.63-1.68L51.63-1.68Q51.84-1.23 52.01-1.05L52.01-1.05L52.01-1.05Q52.19-0.88 52.61-0.84L52.61-0.84L53.90-0.70L53.90 0L42.35 0ZM34.23-7.81L41.48-7.81L37.70-16.17L34.23-7.81ZM57.58-22.75L57.58-22.75Q57.58-23.14 57.42-23.28L57.42-23.28L57.42-23.28Q57.26-23.42 56.73-23.52L56.73-23.52L55.44-23.80L55.44-24.50L67.06-24.50L67.06-23.80L65.56-23.49L65.56-23.49Q65.03-23.38 64.87-23.24L64.87-23.24L64.87-23.24Q64.72-23.10 64.72-22.72L64.72-22.72L64.72-1.05L69.13-1.05L69.13-1.05Q71.19-1.05 72.34-1.68L72.34-1.68L72.34-1.68Q73.50-2.31 74.15-3.47L74.15-3.47L74.15-3.47Q74.80-4.62 75.60-6.97L75.60-6.97L76.58-6.97L76.58 0L55.44 0L55.44-0.70L56.73-0.98L56.73-0.98Q57.26-1.09 57.42-1.23L57.42-1.23L57.42-1.23Q57.58-1.37 57.58-1.75L57.58-1.75L57.58-22.75ZM92.61 0L92.61-0.70L94.11-0.84L94.11-0.84Q94.60-0.91 94.60-1.23L94.60-1.23L94.60-1.23Q94.60-1.40 94.50-1.65L94.50-1.65L92.19-6.76L84.07-6.76L81.97-1.65L81.97-1.65Q81.86-1.40 81.86-1.23L81.86-1.23L81.86-1.23Q81.86-0.91 82.35-0.84L82.35-0.84L83.86-0.70L83.86 0L78.54 0L78.54-0.70L79.83-0.84L79.83-0.84Q80.25-0.88 80.43-1.05L80.43-1.05L80.43-1.05Q80.60-1.23 80.81-1.68L80.81-1.68L90.51-24.89L91.63-24.89L101.88-1.68L101.88-1.68Q102.09-1.23 102.27-1.05L102.27-1.05L102.27-1.05Q102.44-0.88 102.86-0.84L102.86-0.84L104.16-0.70L104.16 0L92.61 0ZM84.49-7.81L91.73-7.81L87.95-16.17L84.49-7.81ZM120.75-15.68L126.49-22.86L126.49-22.86Q126.66-23.10 126.66-23.24L126.66-23.24L126.66-23.24Q126.66-23.42 126.52-23.54L126.52-23.54L126.52-23.54Q126.38-23.66 126.14-23.70L126.14-23.70L124.60-23.84L124.60-24.50L130.76-24.50L130.76-23.80L129.43-23.70L129.43-23.70Q128.83-23.66 128.57-23.49L128.57-23.49L128.57-23.49Q128.31-23.31 127.89-22.82L127.89-22.82L121.38-14.77L130.20-1.68L130.20-1.68Q130.51-1.23 130.72-1.05L130.72-1.05L130.72-1.05Q130.94-0.88 131.32-0.84L131.32-0.84L132.72-0.70L132.72 0L120.57 0L120.57-0.70L121.97-0.84L121.97-0.84Q122.43-0.88 122.43-1.19L122.43-1.19L122.43-1.19Q122.43-1.47 122.22-1.72L122.22-1.72L116.62-10.01L110.07-1.65L110.07-1.65Q109.90-1.40 109.90-1.26L109.90-1.26L109.90-1.26Q109.90-1.09 110.04-0.96L110.04-0.96L110.04-0.96Q110.18-0.84 110.42-0.81L110.42-0.81L111.96-0.67L111.96 0L105.80 0L105.80-0.70L107.13-0.81L107.13-0.81Q107.73-0.84 108.03-1.05L108.03-1.05L108.03-1.05Q108.32-1.26 108.67-1.68L108.67-1.68L116.02-10.92L108.01-22.82L108.01-22.82Q107.69-23.28 107.48-23.45L107.48-23.45L107.48-23.45Q107.27-23.63 106.89-23.66L106.89-23.66L105.49-23.80L105.49-24.50L117.63-24.50L117.63-23.80L116.23-23.66L116.23-23.66Q115.78-23.63 115.78-23.31L115.78-23.31L115.78-23.31Q115.78-23.07 115.99-22.79L115.99-22.79L120.75-15.68ZM155.01-22.86L155.01-22.86Q155.08-23.07 155.08-23.10L155.08-23.10L155.08-23.10Q155.08-23.35 154.88-23.50L154.88-23.50L154.88-23.50Q154.66-23.66 154.38-23.70L154.38-23.70L152.74-23.84L152.74-24.50L158.55-24.50L158.55-23.80L157.46-23.70L157.46-23.70Q156.91-23.66 156.69-23.47L156.69-23.47L156.69-23.47Q156.48-23.28 156.20-22.82L156.20-22.82L149.52-11.34L149.52-1.75L149.52-1.75Q149.52-1.37 149.68-1.23L149.68-1.23L149.68-1.23Q149.83-1.09 150.36-0.98L150.36-0.98L151.66-0.70L151.66 0L140.24 0L140.24-0.70L141.54-0.98L141.54-0.98Q142.06-1.09 142.22-1.23L142.22-1.23L142.22-1.23Q142.38-1.37 142.38-1.75L142.38-1.75L142.38-11.13L135.94-22.82L135.94-22.82Q135.69-23.24 135.48-23.43L135.48-23.43L135.48-23.43Q135.27-23.63 134.92-23.66L134.92-23.66L133.56-23.80L133.56-24.50L144.94-24.50L144.94-23.80L143.53-23.66L143.53-23.66Q143.04-23.63 143.04-23.24L143.04-23.24L143.04-23.24Q143.04-23.03 143.19-22.79L143.19-22.79L148.78-12.22L155.01-22.86ZM179.80-0.53L179.80-0.53Q182.07-0.53 183.33-1.40L183.33-1.40L183.33-1.40Q184.59-2.28 184.59-3.92L184.59-3.92L184.59-3.92Q184.59-5.25 184.01-6.13L184.01-6.13L184.01-6.13Q183.44-7.00 182.25-7.74L182.25-7.74L182.25-7.74Q181.06-8.47 178.75-9.49L178.75-9.49L178.75-9.49Q175.81-10.78 174.20-11.78L174.20-11.78L174.20-11.78Q172.59-12.78 171.66-14.30L171.66-14.30L171.66-14.30Q170.73-15.82 170.73-18.17L170.73-18.17L170.73-18.17Q170.73-21.53 173.11-23.22L173.11-23.22L173.11-23.22Q175.49-24.92 180.67-24.92L180.67-24.92L180.67-24.92Q182.98-24.92 185.13-24.47L185.13-24.47L185.13-24.47Q187.29-24.01 188.76-23.31L188.76-23.31L187.92-17.96L186.97-17.96L186.97-17.96Q186.31-20.09 185.59-21.35L185.59-21.35L185.59-21.35Q184.87-22.61 183.65-23.29L183.65-23.29L183.65-23.29Q182.42-23.98 180.39-23.98L180.39-23.98L180.39-23.98Q175.77-23.98 175.77-20.97L175.77-20.97L175.77-20.97Q175.77-19.74 176.33-18.94L176.33-18.94L176.33-18.94Q176.89-18.13 178.01-17.48L178.01-17.48L178.01-17.48Q179.13-16.84 181.72-15.58L181.72-15.58L182.42-15.26L182.42-15.26Q185.68-13.69 187.23-12.71L187.23-12.71L187.23-12.71Q188.79-11.73 189.70-10.27L189.70-10.27L189.70-10.27Q190.61-8.82 190.61-6.51L190.61-6.51L190.61-6.51Q190.61-3.08 188.04-1.33L188.04-1.33L188.04-1.33Q185.47 0.42 179.97 0.42L179.97 0.42L179.97 0.42Q177.77 0.42 175.09-0.07L175.09-0.07L175.09-0.07Q172.41-0.56 170.94-1.26L170.94-1.26L171.89-7.42L172.80-7.42L172.80-7.42Q173.25-4.69 174.16-3.19L174.16-3.19L174.16-3.19Q175.07-1.68 176.44-1.10L176.44-1.10L176.44-1.10Q177.80-0.53 179.80-0.53L179.80-0.53ZM212.87-17.99L212.87-17.99Q212.87-13.86 209.49-10.75L209.49-10.75L209.49-10.75Q206.12-7.63 201.28-5.11L201.28-5.11L211.82-5.11L211.82-5.11Q212.21-5.11 212.34-5.27L212.34-5.27L212.34-5.27Q212.49-5.43 212.59-5.95L212.59-5.95L212.87-7.25L213.57-7.25L213.57 0L193.94 0L193.62-0.70L193.62-0.70Q199.99-5.04 202.75-9.59L202.75-9.59L202.75-9.59Q205.52-14.14 205.52-18.24L205.52-18.24L205.52-18.24Q205.52-20.58 204.52-21.88L204.52-21.88L204.52-21.88Q203.53-23.17 201.53-23.17L201.53-23.17L201.53-23.17Q199.64-23.17 198.03-22.58L198.03-22.58L198.03-22.58Q196.42-21.98 194.60-20.79L194.60-20.79L194.18-21.46L194.18-21.46Q198.97-24.92 204.75-24.92L204.75-24.92L204.75-24.92Q209.06-24.92 210.96-23.10L210.96-23.10L210.96-23.10Q212.87-21.28 212.87-17.99L212.87-17.99ZM235.97-17.99L235.97-17.99Q235.97-13.86 232.59-10.75L232.59-10.75L232.59-10.75Q229.22-7.63 224.38-5.11L224.38-5.11L234.92-5.11L234.92-5.11Q235.31-5.11 235.44-5.27L235.44-5.27L235.44-5.27Q235.59-5.43 235.69-5.95L235.69-5.95L235.97-7.25L236.67-7.25L236.67 0L217.03 0L216.72-0.70L216.72-0.70Q223.09-5.04 225.85-9.59L225.85-9.59L225.85-9.59Q228.62-14.14 228.62-18.24L228.62-18.24L228.62-18.24Q228.62-20.58 227.62-21.88L227.62-21.88L227.62-21.88Q226.63-23.17 224.63-23.17L224.63-23.17L224.63-23.17Q222.74-23.17 221.13-22.58L221.13-22.58L221.13-22.58Q219.52-21.98 217.70-20.79L217.70-20.79L217.28-21.46L217.28-21.46Q222.07-24.92 227.85-24.92L227.85-24.92L227.85-24.92Q232.16-24.92 234.06-23.10L234.06-23.10L234.06-23.10Q235.97-21.28 235.97-17.99L235.97-17.99ZM272.48-9.10L272.48-9.10Q272.40-4.69 270.09-2.14L270.09-2.14L270.09-2.14Q267.78 0.42 262.64 0.42L262.64 0.42L262.64 0.42Q257.04 0.42 254.36-1.86L254.36-1.86L254.36-1.86Q251.69-4.13 251.69-9.24L251.69-9.24L251.69-22.75L251.69-22.75Q251.69-23.14 251.53-23.28L251.53-23.28L251.53-23.28Q251.37-23.42 250.84-23.52L250.84-23.52L249.55-23.80L249.55-24.50L260.89-24.50L260.89-23.80L259.63-23.52L259.63-23.52Q259.14-23.42 258.98-23.29L258.98-23.29L258.98-23.29Q258.82-23.17 258.82-22.79L258.82-22.79L258.82-8.61L258.82-8.61Q258.82-5.64 259.25-3.99L259.25-3.99L259.25-3.99Q259.67-2.35 260.87-1.56L260.87-1.56L260.87-1.56Q262.08-0.77 264.43-0.77L264.43-0.77L264.43-0.77Q267.78-0.77 269.57-2.98L269.57-2.98L269.57-2.98Q271.36-5.18 271.36-8.82L271.36-8.82L271.36-22.75L271.36-22.75Q271.36-23.14 271.20-23.28L271.20-23.28L271.20-23.28Q271.04-23.42 270.51-23.52L270.51-23.52L269.22-23.80L269.22-24.50L274.54-24.50L274.54-23.80L273.28-23.52L273.28-23.52Q272.79-23.42 272.63-23.29L272.63-23.29L272.63-23.29Q272.48-23.17 272.48-22.79L272.48-22.79L272.48-9.10ZM278.29-22.75L278.29-22.75Q278.29-23.14 278.13-23.28L278.13-23.28L278.13-23.28Q277.97-23.42 277.44-23.52L277.44-23.52L276.15-23.80L276.15-24.50L287.77-24.50L287.77-23.80L286.26-23.49L286.26-23.49Q285.74-23.38 285.58-23.24L285.58-23.24L285.58-23.24Q285.43-23.10 285.43-22.72L285.43-22.72L285.43-1.05L289.84-1.05L289.84-1.05Q291.90-1.05 293.06-1.68L293.06-1.68L293.06-1.68Q294.21-2.31 294.86-3.47L294.86-3.47L294.86-3.47Q295.50-4.62 296.31-6.97L296.31-6.97L297.29-6.97L297.29 0L276.15 0L276.15-0.70L277.44-0.98L277.44-0.98Q277.97-1.09 278.13-1.23L278.13-1.23L278.13-1.23Q278.29-1.37 278.29-1.75L278.29-1.75L278.29-22.75ZM314.86-1.75L314.86-1.75Q314.86-1.37 315.02-1.23L315.02-1.23L315.02-1.23Q315.18-1.09 315.70-0.98L315.70-0.98L317.00-0.70L317.00 0L305.58 0L305.58-0.70L306.88-0.98L306.88-0.98Q307.41-1.09 307.56-1.23L307.56-1.23L307.56-1.23Q307.72-1.37 307.72-1.75L307.72-1.75L307.72-23.52L306.92-23.52L306.92-23.52Q304.78-23.52 303.61-22.82L303.61-22.82L303.61-22.82Q302.44-22.12 301.82-21.00L301.82-21.00L301.82-21.00Q301.21-19.88 300.30-17.43L300.30-17.43L299.53-17.43L299.53-24.50L323.05-24.50L323.05-17.43L322.28-17.43L322.28-17.43Q321.37-19.88 320.76-21.00L320.76-21.00L320.76-21.00Q320.14-22.12 318.97-22.82L318.97-22.82L318.97-22.82Q317.80-23.52 315.67-23.52L315.67-23.52L314.86-23.52L314.86-1.75ZM339.64-8.09L339.64-8.09Q339.36-9.80 338.99-10.48L338.99-10.48L338.99-10.48Q338.63-11.17 337.82-11.39L337.82-11.39L337.82-11.39Q337.02-11.62 335.16-11.62L335.16-11.62L334.15-11.62L334.15-1.79L334.15-1.79Q334.15-1.40 334.30-1.26L334.30-1.26L334.30-1.26Q334.46-1.12 334.99-1.02L334.99-1.02L336.49-0.70L336.49 0L324.87 0L324.87-0.70L326.17-0.98L326.17-0.98Q326.69-1.09 326.85-1.23L326.85-1.23L326.85-1.23Q327.01-1.37 327.01-1.75L327.01-1.75L327.01-22.75L327.01-22.75Q327.01-23.14 326.85-23.28L326.85-23.28L326.85-23.28Q326.69-23.42 326.17-23.52L326.17-23.52L324.87-23.80L324.87-24.50L335.16-24.50L335.16-24.50Q339.85-24.50 342.62-23.89L342.62-23.89L342.62-23.89Q345.38-23.28 346.64-21.88L346.64-21.88L346.64-21.88Q347.90-20.48 347.90-18.06L347.90-18.06L347.90-18.06Q347.90-15.37 346.29-13.91L346.29-13.91L346.29-13.91Q344.68-12.46 341.08-11.94L341.08-11.94L341.08-11.94Q343.14-11.80 344.38-11.27L344.38-11.27L344.38-11.27Q345.63-10.75 346.33-9.61L346.33-9.61L346.33-9.61Q347.03-8.47 347.41-6.48L347.41-6.48L347.80-4.38L347.80-4.38Q348.08-2.87 348.20-2.35L348.20-2.35L348.20-2.35Q348.32-1.82 348.55-1.54L348.55-1.54L348.55-1.54Q348.78-1.26 349.27-1.26L349.27-1.26L349.27-1.26Q350.14-1.26 350.74-2.56L350.74-2.56L351.47-1.93L351.47-1.93Q350.98-0.91 349.98-0.28L349.98-0.28L349.98-0.28Q348.99 0.35 346.75 0.35L346.75 0.35L346.75 0.35Q344.51 0.35 343.21-0.14L343.21-0.14L343.21-0.14Q341.92-0.63 341.18-1.87L341.18-1.87L341.18-1.87Q340.45-3.12 340.06-5.46L340.06-5.46L339.64-8.09ZM334.15-23.45L334.15-12.67L335.48-12.67L335.48-12.67Q337.51-12.67 338.61-13.23L338.61-13.23L338.61-13.23Q339.71-13.79 340.13-14.95L340.13-14.95L340.13-14.95Q340.55-16.10 340.55-18.06L340.55-18.06L340.55-18.06Q340.55-20.02 340.13-21.18L340.13-21.18L340.13-21.18Q339.71-22.33 338.61-22.89L338.61-22.89L338.61-22.89Q337.51-23.45 335.48-23.45L335.48-23.45L334.15-23.45ZM366.52 0L366.52-0.70L368.03-0.84L368.03-0.84Q368.52-0.91 368.52-1.23L368.52-1.23L368.52-1.23Q368.52-1.40 368.41-1.65L368.41-1.65L366.10-6.76L357.98-6.76L355.88-1.65L355.88-1.65Q355.78-1.40 355.78-1.23L355.78-1.23L355.78-1.23Q355.78-0.91 356.27-0.84L356.27-0.84L357.77-0.70L357.77 0L352.45 0L352.45-0.70L353.75-0.84L353.75-0.84Q354.17-0.88 354.34-1.05L354.34-1.05L354.34-1.05Q354.52-1.23 354.73-1.68L354.73-1.68L364.42-24.89L365.54-24.89L375.80-1.68L375.80-1.68Q376.01-1.23 376.18-1.05L376.18-1.05L376.18-1.05Q376.36-0.88 376.78-0.84L376.78-0.84L378.07-0.70L378.07 0L366.52 0ZM358.40-7.81L365.65-7.81L361.87-16.17L358.40-7.81Z" fill="#000000"></path></g></g><style>text {
  font-size: 64px;
  font-family: Arial Black;
  dominant-baseline: central;
  text-anchor: middle;
}</style></svg>