<svg aria-hidden="true" focusable="false" height="33" viewBox="0 0 32 33" width="32" xmlns="http://www.w3.org/2000/svg"><g fill="none" fill-rule="evenodd"><path d="m0 0h32v33h-32z"></path><path d="m21.2204114 0c1.2870345 0 2.3470256.9890146 2.4331238 2.24854141l.0056458.16576115-.000181 4.76669744 3.9644641.0004672c1.2582599 0 2.2874722.9860137 2.3710554 2.2329386l.0054805.1640624v11.8430635c0 1.2682422-.9767848 2.3070993-2.2137729 2.391469l-.162763.0055321-3.9644641-.0005328.000181 4.7676974c0 1.2816911-1.0063648 2.3241098-2.2722445 2.4087529l-.1665251.0055497h-11.6482204c-1.28703486 0-2.34702568-.9890147-2.43312381-2.2485415l-.00564579-.1657611-.0004214-4.7676974-4.7564641.0005328c-1.25825988 0-2.28747216-.9860137-2.37105537-2.2329386l-.00548053-.1640624v-11.8430636c0-1.2682421.97678478-2.3070992 2.21377289-2.3914689l.16276301-.0055321 4.7564641-.0004672.0004214-4.76669744c0-1.28169154 1.00636428-2.32410981 2.2722445-2.40875284l.1665251-.00554972zm.9715886 23.818h-13.593l.0007358 4.7676974c0 .4773507.3720421.8770754.8583254.9317434l.1141298.0063687h11.6482204c.502333 0 .9102564-.3656283.9659682-.829454l.006487-.1086581zm5.4314641-15.1603423h-25.2469282c-.46638342 0-.85146005.355087-.90409149.8133425l-.00613001.107468v11.8430636c0 .4726369.35176353.8614837.80415218.9146219l.10606932.0061886h25.2469282c.4663834 0 .85146-.355087.9040915-.8133426l.00613-.107468v-11.8430635c0-.5089936-.4079624-.9208105-.9102215-.9208105zm-11.1439407 4.0495495-1.2945835 2.7497813h2.1928672l-4.5706732 4.4316859 1.7437237-3.3905075h-1.9286647l1.1096437-3.7909597zm4.740888-11.23101672h-11.6482204c-.5023335 0-.91025647.36562792-.96596825.82945388l-.00648695.1086582-.0007358 4.76669744h13.593l.0008666-4.76669744c0-.47735071-.3720423-.87707532-.8583254-.93174337z" fill="#fff" fill-rule="nonzero" transform="translate(1 1)"></path></g></svg>