<svg width="50" height="50" viewBox="0 0 50 50" fill="none" xmlns="http://www.w3.org/2000/svg">
<g id="Group">
<g id="wheels">
<path id="whee-right" d="M23.8662 37.7168C20.5178 37.7168 17.8023 40.4713 17.8023 43.8584C17.8023 47.2455 20.528 50 23.8662 50C27.2146 50 29.93 47.2455 29.93 43.8584C29.93 40.4713 27.2146 37.7168 23.8662 37.7168ZM23.8662 45.8274C22.8147 45.8274 21.9674 44.9398 21.9674 43.8584C21.9674 42.7668 22.8147 41.8894 23.8662 41.8894C24.9074 41.8894 25.765 42.777 25.765 43.8584C25.765 44.9398 24.9074 45.8274 23.8662 45.8274Z" fill="black"/>
<path id="wheel-left" d="M9.4211 37.7168C6.07271 37.7168 3.35724 40.4713 3.35724 43.8584C3.34703 47.2353 6.07271 49.9898 9.4211 49.9898C12.7695 49.9898 15.485 47.2353 15.485 43.8482C15.485 40.4713 12.7593 37.7168 9.4211 37.7168ZM9.4211 45.8274C8.36963 45.8274 7.52232 44.9398 7.52232 43.8584C7.52232 42.7668 8.36963 41.8894 9.4211 41.8894C10.4624 41.8894 11.3199 42.777 11.3199 43.8584C11.3097 44.9398 10.4624 45.8274 9.4211 45.8274Z" fill="black"/>
</g>
<path id="cart-body" d="M47.9175 0H38.3929C37.4946 0 36.6983 0.581514 36.4124 1.43848L28.899 24.3216H9.60485L4.99059 11.059H26.6939C27.8475 11.059 28.7765 10.1306 28.7765 8.97776C28.7765 7.82493 27.8475 6.89655 26.6939 6.89655H2.06075C0.345713 6.89655 -0.246382 8.27382 0.0904998 9.66129L5.81748 26.1375L1.7647 32.5954C0.672386 34.1461 1.73407 35.7886 3.53077 35.7886H30.1546C31.3082 35.7886 32.2372 34.8602 32.2372 33.7074C32.2372 32.5546 31.3082 31.6262 30.1546 31.6262H7.30793L9.27818 28.484H30.4098C31.3082 28.484 32.1044 27.9025 32.3903 27.0455L39.9038 4.16242H47.9175C49.071 4.16242 50 3.23403 50 2.08121C50 0.928382 49.071 0 47.9175 0Z" fill="black"/>
</g>
</svg>
